<?xml version="1.0" standalone="no"?>
<!DOCTYPE svg PUBLIC "-//W3C//DTD SVG 20010904//EN"
 "http://www.w3.org/TR/2001/REC-SVG-20010904/DTD/svg10.dtd">
<svg version="1.0" xmlns="http://www.w3.org/2000/svg"
 width="3000.000000pt" height="3000.000000pt" viewBox="0 0 3000.000000 3000.000000"
 preserveAspectRatio="xMidYMid meet">
<metadata>
Created by potrace 1.14, written by Peter Selinger 2001-2017
</metadata>
<g transform="translate(0.000000,3000.000000) scale(0.100000,-0.100000)"
fill="#000000" stroke="none">
<path d="M224 20323 c1 -5153 5 -9416 7 -9475 2 -58 7 -110 12 -114 4 -4 7
-45 7 -91 0 -55 5 -94 15 -113 15 -28 16 -53 15 -224 0 -27 4 -54 9 -60 5 -6
10 -15 10 -21 0 -5 6 -17 13 -25 7 -8 14 -44 16 -80 2 -36 5 -93 7 -128 2 -35
5 -66 8 -68 3 -3 2 -18 -3 -34 -6 -21 -3 -36 11 -59 10 -17 19 -49 19 -71 0
-21 5 -42 11 -45 6 -4 9 -19 8 -33 -2 -15 4 -40 12 -57 8 -16 14 -40 13 -53
-1 -12 3 -25 7 -28 5 -3 9 -27 9 -53 0 -29 6 -53 14 -60 9 -8 14 -35 15 -82 0
-39 4 -76 8 -82 4 -7 8 -37 9 -67 1 -59 12 -110 23 -110 4 0 7 -10 8 -21 1
-12 6 -26 11 -31 5 -5 6 -24 2 -43 -5 -24 -3 -40 7 -55 8 -11 12 -27 10 -34
-3 -8 2 -29 12 -47 10 -20 17 -54 17 -81 -1 -27 1 -48 4 -48 7 0 30 -67 36
-105 3 -16 8 -37 11 -45 4 -8 8 -28 10 -45 3 -16 10 -33 17 -37 8 -4 12 -23
11 -45 -1 -21 1 -42 5 -48 7 -10 13 -34 26 -100 3 -16 18 -45 34 -65 23 -29
27 -43 25 -83 -1 -26 2 -50 6 -53 5 -3 9 -16 9 -30 0 -13 4 -24 9 -24 5 0 8
-8 6 -17 -1 -10 6 -33 16 -51 10 -18 19 -41 19 -51 0 -10 7 -24 16 -32 8 -7
13 -21 11 -31 -3 -10 -1 -21 4 -24 5 -3 9 -18 9 -35 0 -16 3 -29 8 -29 4 0 8
-12 8 -26 1 -14 9 -33 17 -42 9 -9 19 -29 22 -44 4 -16 12 -28 17 -28 6 0 8
-9 5 -20 -3 -11 -2 -22 3 -25 7 -4 11 -19 26 -92 1 -7 9 -27 18 -44 9 -18 19
-50 22 -71 4 -21 13 -43 20 -49 8 -6 14 -20 14 -30 0 -10 5 -21 10 -24 6 -4 9
-12 8 -18 -3 -13 61 -149 75 -158 5 -3 8 -8 7 -10 -1 -2 4 -24 11 -49 7 -25
12 -49 10 -54 -1 -5 2 -12 6 -15 12 -9 87 -164 85 -174 -2 -5 9 -33 23 -63 14
-29 26 -57 26 -61 0 -5 6 -15 13 -23 8 -8 21 -32 31 -52 9 -21 21 -38 26 -38
4 0 6 -10 4 -22 -3 -13 6 -33 25 -55 27 -30 35 -51 31 -77 -1 -5 5 -16 12 -25
8 -9 20 -33 28 -53 7 -21 16 -38 20 -38 12 0 49 -70 49 -91 0 -22 27 -70 47
-82 7 -4 13 -16 13 -26 0 -10 9 -26 20 -36 11 -10 20 -24 20 -32 0 -7 5 -13
10 -13 6 0 10 -16 10 -35 0 -19 3 -35 8 -35 8 0 48 -62 91 -145 37 -70 47 -89
61 -112 6 -10 14 -28 20 -40 5 -13 14 -23 20 -23 5 0 10 -7 10 -15 0 -8 4 -15
10 -15 5 0 22 -23 37 -51 16 -28 40 -74 55 -102 16 -28 32 -55 38 -61 5 -5 10
-18 10 -28 0 -10 4 -18 8 -18 12 0 79 -94 97 -137 9 -21 26 -47 39 -58 13 -11
25 -24 26 -30 2 -5 5 -18 8 -27 2 -10 8 -18 13 -18 5 0 8 -4 6 -8 -2 -8 12
-26 96 -127 15 -18 27 -37 25 -42 -1 -4 19 -29 45 -55 25 -26 49 -59 53 -73 3
-14 10 -25 16 -25 5 0 7 -4 4 -8 -3 -5 4 -18 14 -30 11 -12 20 -24 20 -27 0
-4 20 -27 45 -53 25 -25 45 -52 45 -60 0 -7 13 -26 28 -42 16 -16 35 -42 42
-59 6 -17 20 -33 31 -36 10 -3 21 -15 24 -26 4 -10 11 -19 16 -19 6 0 8 -4 5
-8 -2 -4 18 -30 45 -57 27 -27 49 -52 49 -56 0 -4 22 -34 50 -66 27 -32 50
-63 50 -69 0 -7 10 -14 22 -17 12 -4 19 -9 16 -13 -4 -3 4 -16 16 -28 13 -11
25 -27 27 -34 4 -12 71 -84 301 -322 53 -56 103 -114 110 -130 7 -17 19 -30
25 -30 7 0 13 -7 13 -15 0 -8 7 -15 15 -15 8 0 15 -7 15 -15 0 -8 7 -15 15
-15 8 0 15 -6 15 -13 0 -16 24 -36 73 -62 20 -11 40 -29 44 -40 10 -31 143
-175 162 -175 6 0 10 -5 9 -11 -2 -6 9 -16 24 -21 15 -5 79 -61 142 -124 63
-63 117 -114 121 -114 4 0 50 -43 103 -95 52 -52 103 -95 114 -95 10 0 18 -7
18 -15 0 -8 6 -15 14 -15 7 0 16 -9 19 -21 3 -12 10 -18 16 -14 6 3 11 -1 11
-9 0 -9 8 -16 18 -16 10 0 45 -27 78 -60 32 -33 64 -60 70 -60 6 0 19 -9 30
-21 10 -12 36 -30 57 -41 21 -10 41 -26 44 -35 9 -23 37 -50 61 -57 11 -4 39
-25 62 -46 24 -22 48 -40 55 -40 6 0 31 -18 54 -40 23 -22 46 -40 52 -40 5 0
12 -7 15 -15 4 -8 16 -15 29 -15 12 0 28 -7 35 -15 7 -8 18 -15 25 -15 7 0 15
-7 19 -15 3 -8 12 -15 21 -15 8 0 15 -4 15 -10 0 -15 38 -50 54 -50 7 0 27
-14 44 -30 18 -17 37 -30 42 -30 6 0 13 -7 16 -15 4 -8 11 -15 16 -15 26 0 97
-45 112 -71 10 -16 22 -27 27 -24 5 4 9 2 9 -2 0 -5 16 -15 35 -22 19 -6 58
-30 87 -52 29 -21 58 -39 65 -39 6 0 18 -6 25 -13 20 -17 47 -34 98 -60 25
-12 47 -25 48 -29 2 -5 9 -8 16 -8 7 0 23 -12 37 -26 13 -14 52 -39 85 -55 34
-16 68 -36 75 -45 15 -19 89 -55 99 -49 4 2 15 -4 25 -15 10 -11 26 -20 35
-20 9 0 24 -8 34 -19 9 -10 34 -26 56 -36 22 -10 40 -22 40 -27 0 -4 7 -8 14
-8 8 0 35 -13 59 -30 25 -16 51 -30 58 -30 8 0 25 -9 39 -20 14 -11 35 -20 47
-20 12 0 28 -7 37 -15 8 -8 18 -15 22 -15 4 0 15 -7 25 -16 9 -8 30 -16 46
-18 27 -2 107 -47 129 -73 6 -7 21 -14 33 -16 12 -2 27 -9 33 -15 7 -7 18 -12
25 -12 7 0 13 -4 13 -10 0 -5 9 -10 20 -10 11 0 28 -4 38 -9 9 -5 38 -19 65
-31 26 -12 47 -26 47 -31 0 -4 7 -6 15 -3 19 8 104 -24 132 -49 13 -11 23 -17
23 -14 0 4 10 1 22 -6 13 -8 42 -20 66 -27 23 -7 42 -17 42 -22 0 -5 4 -7 9
-3 5 3 12 1 15 -4 3 -5 39 -19 78 -30 40 -12 82 -26 93 -31 41 -19 504 -175
810 -273 44 -14 116 -40 160 -57 44 -17 85 -33 90 -34 14 -4 46 -16 70 -26 11
-5 45 -14 76 -20 30 -6 93 -24 140 -41 67 -24 262 -82 314 -93 6 -1 19 -5 30
-9 11 -3 31 -9 45 -11 14 -3 57 -15 95 -26 110 -33 321 -77 425 -89 86 -10
161 -22 230 -36 14 -3 61 -7 105 -10 44 -2 92 -7 107 -10 70 -16 814 -19 4800
-20 3011 -1 4275 2 4270 9 -3 6 0 6 9 -1 10 -8 96 -11 295 -11 155 0 301 -3
325 -8 24 -4 60 -7 79 -6 19 1 175 4 345 7 385 7 388 8 398 20 6 7 10 7 13 0
3 -8 89 -12 89 -5 0 6 159 12 522 23 46 1 83 5 83 9 0 3 9 4 21 1 12 -4 25 0
30 8 5 8 9 9 9 4 0 -6 9 -11 20 -11 11 0 20 4 20 8 0 5 10 4 21 -3 15 -8 19
-8 15 0 -5 8 15 11 66 12 94 1 190 13 212 27 5 3 34 7 65 8 66 4 82 7 99 17 7
5 12 3 12 -5 0 -9 3 -9 10 2 5 8 10 11 10 6 0 -5 6 -4 13 1 6 6 22 9 35 8 12
-1 22 1 22 5 0 3 19 7 43 7 23 1 43 2 45 3 1 2 10 3 20 4 9 1 22 4 27 7 15 10
73 21 121 24 23 1 48 6 56 11 14 9 32 14 63 17 11 2 26 7 34 11 10 7 12 5 6
-5 -6 -11 -5 -12 6 -1 17 16 32 16 24 0 -4 -7 1 -4 9 6 9 11 16 16 16 12 0 -5
6 -4 13 2 6 6 32 12 57 15 52 6 140 29 140 37 0 3 18 5 40 4 22 0 40 2 40 6 0
12 44 27 73 26 15 -1 27 1 27 5 0 4 11 6 25 4 16 -1 25 3 25 11 0 14 17 18 53
15 9 -1 17 2 17 7 0 6 9 8 21 5 12 -3 24 -2 28 3 9 14 64 36 55 23 -4 -8 0 -8
15 0 11 7 21 9 21 5 0 -3 7 -1 15 6 8 7 15 10 15 6 0 -4 11 1 25 10 13 8 29
13 35 9 5 -3 10 -1 10 5 0 6 4 9 9 6 13 -8 63 12 57 22 -3 5 5 8 17 7 12 -1
28 3 36 9 11 8 13 8 8 -1 -4 -6 13 -1 39 12 25 13 56 22 69 20 13 -1 26 4 29
10 5 15 95 37 110 28 5 -3 6 -1 3 4 -9 15 15 32 38 29 11 -2 35 5 53 16 18 10
38 15 44 12 7 -4 8 -2 4 4 -5 8 2 12 18 12 14 0 26 5 26 10 0 6 6 10 14 10 8
0 16 5 18 11 3 9 9 9 25 1 17 -10 23 -8 34 8 12 17 45 29 86 32 7 1 10 5 8 9
-5 8 35 23 73 27 7 1 10 7 6 14 -4 7 -3 8 5 4 6 -4 18 -3 25 4 8 6 23 13 35
15 12 2 28 11 36 19 9 8 22 13 30 10 8 -4 15 -1 15 6 0 6 5 8 10 5 6 -3 10 -1
10 5 0 6 4 9 9 6 5 -4 11 -1 13 4 2 6 10 12 18 14 33 5 60 18 60 27 0 6 4 8 9
4 5 -3 12 -1 16 4 3 6 12 8 20 4 8 -3 15 0 15 7 0 6 5 8 10 5 6 -3 10 -2 10 3
0 10 50 35 57 28 3 -3 14 4 26 14 11 11 23 17 27 15 4 -2 16 5 28 15 12 11 30
20 42 20 11 0 20 5 20 11 0 5 5 7 10 4 6 -3 10 -2 10 3 0 10 58 36 73 33 4 0
7 5 7 12 0 7 10 13 22 14 11 1 24 6 27 10 11 15 62 33 73 27 7 -5 8 -2 4 5 -5
8 0 14 13 18 12 3 21 10 21 15 0 6 7 8 15 4 8 -3 15 -2 15 3 0 4 18 16 40 26
22 10 40 22 40 27 0 4 7 8 15 8 9 0 25 9 37 20 12 11 28 20 35 20 8 0 26 8 41
19 54 36 87 55 95 53 4 -1 7 2 7 6 0 5 18 17 40 27 22 10 40 22 40 26 0 4 8
10 19 14 10 3 29 14 41 25 12 11 26 17 30 15 4 -3 11 2 14 11 3 8 10 12 16 9
6 -3 13 1 16 9 3 9 13 16 20 16 8 0 17 7 21 16 3 8 11 13 18 10 8 -3 16 2 19
11 4 9 9 13 12 10 6 -6 19 3 56 38 13 12 18 14 14 5 -5 -9 -2 -9 7 2 8 10 17
15 20 11 4 -3 9 2 13 11 3 9 10 14 14 11 4 -3 11 2 14 11 3 8 10 12 16 9 6 -3
13 1 16 9 3 9 12 16 20 16 8 0 14 5 14 11 0 5 4 8 9 5 5 -3 16 5 25 19 9 14
23 25 31 25 8 0 15 5 15 10 0 6 9 10 20 10 11 0 20 5 20 10 0 6 7 10 16 10 8
0 13 4 10 8 -4 8 46 44 59 42 3 0 16 11 30 25 13 15 27 27 32 27 18 1 33 11
28 18 -3 5 4 11 15 15 11 3 20 11 20 16 0 5 7 9 15 9 8 0 15 5 15 11 0 5 5 7
10 4 6 -3 10 1 10 9 0 9 7 16 15 16 8 0 15 5 15 11 0 5 4 8 9 5 5 -3 11 1 15
9 3 8 12 15 21 15 8 0 15 7 15 15 0 9 11 20 25 25 14 5 25 14 25 20 0 5 4 10
10 10 10 0 37 20 72 53 10 9 18 15 18 12 0 -5 32 23 101 88 23 20 44 37 48 37
3 0 13 9 21 20 8 11 20 20 27 20 7 0 13 8 13 17 0 9 3 13 7 10 3 -4 19 7 35
23 15 16 28 27 28 25 0 -3 18 13 40 35 22 22 40 39 40 36 0 -2 32 27 71 65 39
38 75 69 80 69 5 0 9 7 9 16 0 8 4 13 9 10 5 -3 11 3 14 14 3 11 12 20 21 20
9 0 16 5 16 10 0 6 7 10 16 10 8 0 13 4 10 8 -6 11 40 53 48 45 6 -6 10 12 7
30 0 4 2 6 6 6 21 -3 33 3 33 17 0 8 4 13 8 10 5 -3 15 6 22 19 7 13 17 22 22
19 4 -3 8 0 8 6 0 6 25 35 55 65 30 29 55 55 55 58 0 3 40 46 89 96 50 50 87
91 83 91 -4 0 1 5 11 11 9 5 17 17 17 25 0 8 4 13 8 10 5 -3 15 5 23 16 8 12
30 37 49 57 19 19 28 31 20 26 -8 -4 2 9 23 29 21 21 34 42 31 49 -4 7 -4 9 0
5 12 -11 69 49 60 64 -4 7 -4 10 1 6 9 -8 37 20 82 79 15 21 30 40 33 43 3 3
10 14 17 25 6 11 16 19 22 17 6 -1 10 1 10 5 -3 21 2 33 16 33 8 0 14 3 13 7
-3 14 14 43 22 38 4 -3 11 7 14 20 4 14 10 24 15 21 4 -3 14 7 22 22 7 15 24
37 37 50 13 12 19 22 15 22 -4 0 0 5 10 11 9 6 15 14 12 20 -4 5 -2 9 3 9 5 0
17 16 28 35 10 19 25 35 32 35 7 0 11 4 7 10 -3 5 3 18 15 30 11 11 20 24 20
28 0 5 9 17 20 27 11 10 20 24 20 32 0 7 5 13 11 13 5 0 8 4 4 9 -3 5 4 12 15
16 11 4 18 10 15 14 -2 5 6 20 20 35 13 14 22 26 19 26 -3 0 13 25 35 56 22
31 38 61 35 65 -3 5 1 9 9 9 7 0 19 16 27 35 7 19 20 37 27 40 8 2 11 9 8 15
-3 5 -1 10 4 10 6 0 11 6 11 14 0 8 4 16 9 18 5 1 11 10 13 18 2 8 12 24 24
36 11 11 20 28 18 37 -1 9 2 14 8 11 5 -3 12 3 15 15 3 12 10 21 15 21 5 0 6
5 3 10 -3 6 -1 10 4 10 6 0 11 7 11 15 0 8 4 15 9 15 5 0 12 11 15 25 4 14 11
25 17 25 6 0 7 5 4 10 -3 6 -1 10 5 10 7 0 10 6 7 13 -3 8 3 20 13 27 11 8 17
17 14 21 -2 4 0 10 6 14 6 4 7 11 4 17 -4 7 -2 8 4 4 7 -4 12 -1 12 7 0 8 7
20 15 27 9 7 13 15 10 18 -2 3 3 11 13 19 11 10 12 12 2 8 -13 -6 -13 -5 0 7
8 7 16 20 18 27 2 8 10 20 19 26 9 7 13 17 9 24 -4 6 0 14 8 17 9 3 16 12 16
20 0 8 4 14 9 14 6 0 8 9 6 19 -2 11 3 22 11 25 9 3 13 10 10 15 -4 5 -1 11 4
13 6 2 12 10 14 18 6 28 18 50 26 45 4 -3 8 1 7 8 -1 33 4 47 18 47 8 0 14 3
13 8 -5 20 15 72 28 72 9 0 13 3 10 8 -7 12 23 74 33 68 5 -4 8 2 6 11 -1 10
2 24 8 31 5 6 6 12 1 12 -5 0 2 9 16 20 14 11 20 20 13 20 -12 0 34 102 50
108 4 2 4 8 1 14 -3 5 4 20 17 34 14 15 17 24 10 24 -11 0 -11 3 -1 15 7 8 9
15 4 15 -5 0 -1 5 9 11 9 5 17 14 17 19 0 5 5 21 12 37 6 15 11 31 10 36 -1 4
2 7 8 7 5 0 10 8 10 19 0 22 25 73 32 66 2 -3 5 1 6 8 3 43 10 70 19 75 13 8
34 82 27 93 -3 5 3 6 12 2 12 -4 15 -3 10 5 -4 7 -4 18 1 25 4 6 8 18 10 26 1
8 8 18 15 22 10 7 10 9 1 9 -8 0 -5 8 7 20 11 11 17 26 14 35 -4 8 -1 15 5 15
6 0 8 7 5 15 -4 8 -1 15 6 15 6 0 8 4 5 10 -3 6 -2 10 3 10 5 0 12 9 15 20 3
11 0 20 -5 20 -6 0 -5 6 2 15 7 8 9 15 4 15 -5 0 -1 5 9 11 9 5 17 19 17 30 0
11 5 30 11 41 8 15 8 19 0 14 -16 -10 -13 0 5 19 10 9 17 29 18 45 1 15 5 26
10 23 5 -3 6 0 4 8 -3 8 3 26 14 41 11 16 17 32 13 37 -3 5 0 13 6 16 5 4 8
13 5 20 -5 14 14 65 25 65 3 0 6 15 7 34 1 19 9 49 19 68 10 18 18 45 17 60
-1 16 4 28 10 28 6 0 4 4 -4 10 -13 8 -12 10 1 15 9 3 16 11 16 18 1 7 4 30 9
52 4 22 7 48 8 57 0 9 5 16 10 15 6 -1 11 4 12 11 1 6 3 15 4 20 1 4 2 11 1
16 -1 4 3 14 9 21 8 10 8 15 0 20 -7 4 -8 11 -1 18 9 12 11 18 11 38 0 5 4 8
9 5 5 -4 8 2 6 11 -1 10 0 22 3 28 10 16 9 45 0 45 -5 0 -2 7 6 16 19 19 21
28 4 18 -9 -6 -9 -3 0 9 8 9 10 22 6 28 -5 9 -2 10 10 6 14 -6 16 -3 11 13 -3
10 -1 28 5 40 8 15 8 20 -2 20 -9 0 -10 3 -2 8 6 4 10 17 9 30 -1 12 2 22 7
22 5 0 6 5 3 10 -3 6 -2 10 3 10 5 0 9 6 10 13 1 6 4 32 7 57 3 25 7 59 9 75
5 42 16 66 28 59 6 -4 5 2 -1 14 -6 12 -7 23 -2 26 5 3 7 22 5 41 -2 26 0 34
9 28 7 -4 7 0 -2 10 -9 12 -10 17 -2 17 7 0 10 4 7 9 -5 8 9 60 25 93 5 10 4
18 -3 20 -7 3 -8 9 -2 19 5 8 10 32 11 54 2 36 9 80 13 80 1 0 4 14 6 30 3 17
7 39 8 50 2 11 -2 26 -8 34 -8 11 -8 13 1 8 7 -5 12 9 15 43 1 28 -1 50 -6 50
-5 0 -3 7 4 15 7 8 9 15 5 15 -4 0 0 12 10 26 9 15 12 23 6 20 -6 -4 -11 -3
-11 3 0 5 4 12 10 16 5 3 7 12 4 19 -3 8 0 17 6 21 8 5 8 11 -1 21 -6 8 -8 14
-3 14 5 0 9 32 8 70 -1 39 3 73 8 76 5 3 5 11 -1 18 -6 7 -7 26 -2 47 5 20 8
2313 7 5097 -1 4826 -2 5062 -19 5074 -15 12 -17 32 -18 181 0 93 -5 167 -10
167 -5 0 -9 22 -9 48 0 27 -3 52 -7 55 -4 4 -6 33 -5 64 0 34 -5 68 -15 87
-10 20 -15 51 -14 87 1 32 -2 60 -8 64 -6 3 -11 25 -11 48 0 24 -6 51 -14 62
-7 11 -14 40 -14 65 1 25 -3 72 -8 105 -4 33 -7 68 -5 78 1 10 -2 24 -7 30 -5
7 -9 29 -8 50 2 25 -4 47 -16 62 -14 18 -18 41 -18 99 0 54 -4 77 -14 83 -14
8 -25 84 -25 166 0 21 -5 37 -12 37 -6 0 -9 9 -6 20 3 11 2 20 -1 20 -11 0
-32 51 -32 76 0 12 -7 27 -15 34 -10 8 -15 30 -15 65 0 28 -3 55 -7 58 -3 4
-7 28 -9 54 -3 62 -13 104 -29 123 -15 18 -30 84 -27 123 1 15 -2 27 -7 27
-10 0 -25 53 -24 88 0 12 -4 22 -10 22 -5 0 -7 14 -5 30 3 21 -1 35 -14 47
-10 9 -18 28 -18 43 0 15 -3 30 -7 34 -7 7 -8 12 -19 81 -4 22 -13 49 -20 60
-8 11 -14 31 -14 46 0 15 -6 32 -14 38 -8 7 -17 28 -21 48 -4 20 -15 48 -25
61 -11 13 -22 43 -26 68 -3 24 -10 44 -13 44 -4 0 -8 6 -8 13 -1 26 -14 81
-24 98 -5 11 -7 19 -3 19 3 0 1 7 -6 15 -6 8 -9 18 -6 23 3 6 0 15 -7 21 -8 6
-13 21 -12 33 1 13 -5 31 -13 41 -8 9 -16 25 -17 35 -2 18 -18 56 -34 82 -12
18 -23 48 -28 74 -2 11 -10 27 -17 35 -7 9 -12 25 -10 35 1 11 -6 31 -17 44
-11 15 -17 33 -14 44 4 10 2 18 -4 18 -9 0 -22 27 -27 58 -1 8 -9 21 -17 30
-8 10 -15 28 -15 42 0 27 -39 121 -56 132 -6 4 -7 8 -3 8 5 0 -1 13 -12 29
-12 16 -21 31 -21 34 0 3 -5 18 -12 34 -6 15 -12 35 -12 43 -1 22 -43 90 -56
90 -5 0 -10 6 -10 13 0 6 -7 25 -15 41 -8 15 -12 32 -9 37 3 5 2 9 -3 9 -4 0
-14 14 -21 30 -6 17 -18 44 -24 60 -7 17 -16 30 -20 30 -5 0 -8 8 -8 17 0 20
-38 100 -51 109 -5 3 -9 14 -9 25 0 10 -4 19 -9 19 -9 0 -35 64 -36 87 0 7
-10 21 -23 33 -12 11 -22 25 -22 30 0 17 -3 25 -17 38 -7 7 -13 22 -13 32 0
11 -7 23 -16 28 -11 6 -15 17 -11 32 3 12 3 19 0 16 -9 -9 -33 14 -33 33 -1
19 -34 61 -49 61 -6 0 -11 8 -11 19 0 10 -7 24 -15 31 -8 7 -15 20 -15 30 0
10 -7 23 -15 30 -8 7 -15 19 -15 27 0 8 -9 28 -21 44 -11 16 -17 29 -13 29 4
0 -4 12 -18 28 -15 15 -37 52 -51 82 -13 30 -34 66 -46 79 -11 13 -21 29 -21
36 0 6 -13 24 -30 40 -16 16 -30 34 -30 41 0 6 -7 17 -15 24 -8 7 -15 19 -15
27 0 8 -13 32 -30 53 -16 21 -30 43 -30 50 0 14 -28 52 -82 113 -21 23 -38 48
-38 54 0 7 -4 13 -10 13 -5 0 -10 8 -10 18 0 10 -13 31 -30 47 -16 15 -27 31
-25 35 3 5 -34 58 -75 107 -5 7 -10 17 -10 23 0 5 -4 10 -10 10 -5 0 -10 7
-10 15 0 9 -13 29 -30 45 -16 16 -30 33 -30 38 0 5 -13 22 -30 38 -16 16 -30
34 -30 41 0 7 -18 31 -39 55 -22 23 -37 46 -35 50 3 4 -4 13 -16 20 -11 7 -20
19 -20 27 0 7 -18 29 -40 48 -22 20 -40 42 -40 49 0 8 -9 22 -19 31 -11 9 -18
20 -15 25 3 4 -4 8 -15 8 -12 0 -20 3 -19 8 4 14 -51 87 -108 142 -31 30 -63
69 -70 85 -7 17 -45 61 -84 99 -38 38 -68 71 -66 73 2 2 -25 32 -60 67 -35 34
-64 66 -64 70 0 8 -30 43 -58 69 -63 60 -212 212 -212 218 0 4 -7 10 -16 13
-8 3 -13 10 -9 15 3 5 -3 12 -14 16 -11 3 -22 13 -25 21 -3 8 -10 12 -16 9 -5
-3 -10 -1 -10 5 0 11 -214 230 -224 230 -3 0 -49 45 -104 100 -54 55 -102 100
-106 100 -4 0 -41 34 -83 75 -42 41 -79 75 -83 75 -4 0 -28 20 -52 45 -25 25
-52 45 -59 45 -8 0 -20 9 -27 20 -7 12 -17 18 -22 15 -6 -3 -10 1 -10 9 0 9
-3 16 -8 16 -4 0 -32 25 -62 55 -30 30 -60 55 -66 55 -7 0 -35 23 -63 50 -28
28 -57 50 -64 50 -6 0 -29 18 -51 40 -21 22 -43 40 -48 40 -5 0 -20 12 -34 28
-15 15 -31 27 -38 27 -6 0 -28 17 -48 38 -21 20 -41 37 -46 37 -5 0 -27 13
-48 30 -22 16 -43 33 -49 37 -5 5 -23 15 -39 23 -16 8 -45 32 -65 53 -19 20
-39 37 -45 37 -5 0 -17 7 -27 16 -9 8 -26 16 -38 17 -11 1 -21 6 -21 12 0 6
-18 21 -40 35 -22 14 -40 28 -40 32 0 5 -5 8 -11 8 -6 0 -25 11 -43 25 -44 36
-50 40 -66 43 -8 2 -18 8 -21 13 -3 6 -13 11 -21 13 -8 1 -29 13 -45 26 -36
29 -93 63 -109 64 -6 1 -28 18 -48 38 -20 20 -47 40 -59 44 -12 4 -35 18 -51
31 -17 14 -66 42 -111 63 -44 21 -87 45 -94 54 -7 9 -19 16 -26 16 -7 0 -24 9
-38 20 -14 11 -32 20 -40 20 -8 0 -20 7 -27 15 -7 8 -19 15 -27 15 -12 0 -68
34 -83 50 -3 3 -35 21 -72 39 -38 18 -68 37 -68 42 0 4 -16 13 -35 20 -19 7
-35 17 -35 21 0 4 -9 8 -21 8 -27 0 -83 26 -133 62 -21 15 -47 28 -56 28 -10
0 -20 7 -24 15 -3 8 -17 15 -31 15 -14 0 -25 4 -25 9 0 11 -80 51 -103 51 -9
0 -17 5 -17 10 0 6 -10 10 -23 10 -12 0 -32 7 -43 15 -12 8 -24 11 -28 8 -3
-3 -6 -1 -6 6 0 14 -59 41 -90 41 -11 0 -38 11 -60 25 -22 14 -46 25 -55 25
-8 0 -15 4 -15 10 0 5 -12 13 -27 16 -32 8 -81 33 -101 52 -7 6 -23 12 -35 12
-12 1 -33 7 -47 15 -14 8 -35 14 -46 15 -12 0 -26 6 -32 13 -6 7 -28 14 -49
15 -21 2 -41 9 -46 17 -4 8 -19 15 -31 15 -13 0 -26 7 -30 15 -3 8 -9 14 -13
13 -15 -3 -63 14 -63 23 0 5 -13 9 -29 9 -16 0 -34 7 -41 15 -7 8 -25 15 -41
15 -15 0 -30 4 -34 10 -3 5 -12 7 -20 3 -8 -3 -15 0 -15 6 0 6 -12 11 -26 11
-27 0 -116 38 -122 53 -2 4 -20 7 -41 7 -20 0 -42 5 -49 12 -7 7 -12 9 -12 5
0 -4 -13 -1 -30 8 -16 8 -40 15 -53 15 -14 0 -30 7 -37 15 -7 8 -24 15 -39 15
-15 0 -38 8 -51 17 -14 10 -36 18 -50 19 -14 0 -45 6 -70 14 -25 7 -52 12 -59
11 -8 -2 -20 5 -27 14 -7 9 -23 17 -36 17 -12 1 -33 9 -45 19 -14 10 -35 15
-54 13 -18 -2 -37 0 -43 5 -13 10 -76 26 -93 23 -6 -1 -26 6 -45 16 -18 10
-46 18 -63 17 -16 -1 -38 5 -47 13 -10 8 -42 16 -70 18 -29 2 -84 8 -123 15
-38 6 -81 12 -95 13 -14 0 -38 10 -55 22 -52 36 -69 41 -190 50 -38 3 -74 9
-80 13 -5 4 -30 6 -55 5 -31 -2 -49 2 -57 13 -7 8 -25 17 -40 19 -15 3 -57 9
-93 15 -36 5 -84 11 -107 12 -23 1 -45 5 -49 10 -4 4 -35 7 -69 7 -34 0 -65 3
-69 7 -4 4 -17 8 -29 8 -30 1 -67 15 -67 24 0 5 -46 8 -102 7 -70 -1 -112 3
-131 13 -16 7 -48 15 -70 17 -23 2 -69 7 -103 12 -34 4 -72 5 -85 2 -13 -3
-51 -2 -84 3 -33 5 -72 10 -87 10 -15 1 -30 6 -34 10 -4 4 -35 7 -68 7 -38 1
-68 6 -80 15 -14 11 -47 15 -113 15 -51 0 -93 3 -93 8 0 4 -32 7 -71 7 -39 -1
-73 3 -75 7 -3 4 -4170 8 -9260 8 l-9254 0 4 -9367z"/>
</g>
</svg>
